<svg width="16" height="16" viewBox="0 0 16 16" fill="none" xmlns="http://www.w3.org/2000/svg">
<g clip-path="url(#clip0_209_779)">
<path d="M4.25313 0.577515C4.42188 0.970952 4.7 1.30126 5.05 1.64314C5.49375 2.08033 6.04375 2.52439 6.52187 3.12439C7.64375 4.52814 7.79062 6.23127 7.71562 7.80626C7.70625 8.01252 7.55312 8.13439 7.44688 8.19689C7.34375 8.25939 7.24375 8.29689 7.15625 8.33751C7.07188 8.38126 7.00625 8.42501 6.975 8.45626C6.95312 8.48127 6.94688 8.49376 6.94375 8.52501C6.95 8.52814 6.95 8.53126 6.96875 8.54376C7.01875 8.57814 7.11562 8.62814 7.24375 8.66876C7.5 8.75001 7.86875 8.80626 8.24063 8.81564C8.6125 8.82501 8.9875 8.78439 9.25313 8.70314C9.47188 8.63439 9.58125 8.55001 9.625 8.47502C9.58125 8.43439 9.49063 8.37501 9.39062 8.31564C9.29062 8.25627 9.17813 8.20001 9.08125 8.14064C9.03125 8.11251 8.9875 8.08439 8.94063 8.04689C8.89688 8.01251 8.8375 7.98127 8.79688 7.85314C8.62187 7.33751 8.58125 6.55314 8.69063 5.69064C8.8 4.82814 9.0625 3.89689 9.55937 3.15626C9.975 2.53876 10.5719 2.02345 11.0656 1.54345C11.4219 1.19564 11.7063 0.867827 11.8562 0.577515H6.82188C7.30625 1.39689 7.5375 2.72001 7.30625 2.79408C7.15938 2.84158 6.59375 1.49564 5.99062 0.577515H4.25313ZM8.61563 1.78345L9.37813 1.96564C8.75625 2.78751 8.7 3.80939 8.33438 4.65001C8.175 3.78126 8.17188 2.64751 8.61563 1.78345ZM1.74844 5.28126L0.81875 12.7188H15.1812L14.2531 5.28126H9.32812C9.29688 5.44064 9.26875 5.60001 9.25 5.75939C9.15312 6.52814 9.20312 7.24689 9.31563 7.62189L9.31875 7.62501H12L14 8.50001L12 9.37501H8.55625C8.44687 9.37814 8.3375 9.38126 8.22812 9.37814C8.20312 9.37814 8.18125 9.37501 8.15625 9.37501H4.87187L4.8125 10.6875H3.8125L3.8875 9.00001H2.0625L2.125 8.00001H3.93438L4 6.50001H5L4.95 7.62501H7.15938C7.19063 6.82814 7.15313 6.03439 6.9625 5.28126H1.74844ZM0.78125 13.2813V15.2188H15.2188V13.2813H0.78125Z" fill="#FEFEFE"/>
</g>
<defs>
<clipPath id="clip0_209_779">
<rect width="16" height="16" fill="white"/>
</clipPath>
</defs>
</svg>
